# xmcd CD database file
#
# Track frame offsets:
#	150
#	13811
#	28976
#	43430
#	58294
#
# Disc length: 933 seconds
#
# Revision: 0
# Processed by: cddbd v1.5.1PL2 Copyright (c) Steve Scherf et al.
# Submitted via: CDex 1.51
#
DISCID=4a03a305
DTITLE=United Stoats of America - United Stoats of America
DYEAR=2006
DGENRE=Country
TTITLE0=San Francisco Bay Blues
TTITLE1=Yonder Comes a Sucker
TTITLE2=I Still Haven't Found what I'm Looking For
TTITLE3=Rocky Top
TTITLE4=Fat Bottomed Girls
EXTD=YEAR: 2006
EXTT0=
EXTT1=
EXTT2=
EXTT3=
EXTT4=
PLAYORDER=
